<svg width="20" height="20" viewBox="0 0 20 20" fill="none" xmlns="http://www.w3.org/2000/svg">
<path d="M9.31501 16.3075C9.39146 16.4186 9.49375 16.5093 9.61308 16.5721C9.73241 16.6348 9.8652 16.6675 10 16.6675C10.1348 16.6675 10.2676 16.6348 10.3869 16.5721C10.5063 16.5093 10.6086 16.4186 10.685 16.3075L18.185 5.47419C18.2718 5.34923 18.3227 5.20288 18.3322 5.05103C18.3417 4.89917 18.3094 4.74762 18.2387 4.61285C18.1681 4.47807 18.0619 4.36523 17.9317 4.28657C17.8015 4.20791 17.6522 4.16645 17.5 4.16669H2.50001C2.34821 4.16732 2.19946 4.20931 2.06974 4.28816C1.94003 4.367 1.83426 4.47972 1.76382 4.61418C1.69337 4.74864 1.66091 4.89977 1.66993 5.0513C1.67895 5.20283 1.72911 5.34903 1.81501 5.47419L9.31501 16.3075Z" fill="white"/>
</svg>
