<svg width="20" height="20" viewBox="0 0 20 20" fill="none" xmlns="http://www.w3.org/2000/svg">
<path d="M3.6925 10.685L14.5258 18.185C14.6509 18.2715 14.7972 18.3222 14.9489 18.3315C15.1007 18.3408 15.2521 18.3085 15.3867 18.2379C15.5214 18.1674 15.6342 18.0613 15.7129 17.9312C15.7916 17.8012 15.8333 17.6521 15.8333 17.5V2.50002C15.8334 2.34792 15.7919 2.19869 15.7132 2.06851C15.6346 1.93832 15.5218 1.83215 15.3871 1.7615C15.2524 1.69085 15.1009 1.65841 14.9491 1.66769C14.7973 1.67698 14.6509 1.72764 14.5258 1.81419L3.6925 9.31419C3.58214 9.39122 3.492 9.49375 3.42976 9.61309C3.36752 9.73242 3.33502 9.86502 3.33502 9.99961C3.33502 10.1342 3.36752 10.2668 3.42976 10.3861C3.492 10.5055 3.58214 10.608 3.6925 10.685Z" fill="white"/>
</svg>
