<svg width="20" height="20" viewBox="0 0 20 20" fill="none" xmlns="http://www.w3.org/2000/svg">
<path d="M4.61335 18.2383C4.74806 18.3088 4.89947 18.3411 5.05121 18.3317C5.20294 18.3223 5.34921 18.2715 5.47419 18.185L16.3075 10.685C16.4182 10.6083 16.5087 10.5059 16.5712 10.3866C16.6336 10.2673 16.6663 10.1347 16.6663 9.99998C16.6663 9.86531 16.6336 9.73265 16.5712 9.61335C16.5087 9.49405 16.4182 9.39168 16.3075 9.31498L5.47419 1.81498C5.34917 1.72848 5.20286 1.67782 5.05112 1.6685C4.89937 1.65918 4.74796 1.69155 4.6133 1.7621C4.47863 1.83265 4.36582 1.9387 4.2871 2.06877C4.20838 2.19883 4.16674 2.34795 4.16669 2.49998V17.5C4.16666 17.6521 4.20827 17.8013 4.28701 17.9315C4.36575 18.0616 4.47861 18.1677 4.61335 18.2383Z" fill="white"/>
</svg>
