<svg width="20" height="20" viewBox="0 0 20 20" fill="none" xmlns="http://www.w3.org/2000/svg">
<path d="M2.50001 15.8334H17.5C17.6519 15.8329 17.8007 15.791 17.9306 15.7122C18.0604 15.6334 18.1663 15.5207 18.2368 15.3862C18.3074 15.2517 18.3399 15.1006 18.3309 14.949C18.3219 14.7974 18.2718 14.6511 18.1858 14.5259L10.6858 3.69253C10.375 3.24336 9.62668 3.24336 9.31501 3.69253L1.81501 14.5259C1.7282 14.6508 1.67729 14.7972 1.66781 14.949C1.65834 15.1009 1.69066 15.2524 1.76127 15.3872C1.83188 15.522 1.93807 15.6348 2.06831 15.7135C2.19855 15.7921 2.34786 15.8336 2.50001 15.8334Z" fill="white"/>
</svg>
