<svg width="268" height="64" viewBox="0 0 268 64" fill="none" xmlns="http://www.w3.org/2000/svg">
<rect x="0.5" y="0.5" width="267" height="63" rx="4.5" stroke="#8A38F5" stroke-dasharray="10 5"/>
<path d="M228.613 38.2383C228.748 38.3088 228.899 38.3411 229.051 38.3317C229.203 38.3223 229.349 38.2716 229.474 38.185L240.308 30.685C240.418 30.6083 240.509 30.5059 240.571 30.3866C240.634 30.2673 240.666 30.1347 240.666 30C240.666 29.8653 240.634 29.7327 240.571 29.6134C240.509 29.4941 240.418 29.3917 240.308 29.315L229.474 21.815C229.349 21.7285 229.203 21.6779 229.051 21.6685C228.899 21.6592 228.748 21.6916 228.613 21.7621C228.479 21.8327 228.366 21.9387 228.287 22.0688C228.208 22.1989 228.167 22.348 228.167 22.5V37.5C228.167 37.6521 228.208 37.8013 228.287 37.9315C228.366 38.0616 228.479 38.1678 228.613 38.2383Z" fill="white"/>
<path d="M158.5 35.8333H173.5C173.652 35.8329 173.801 35.791 173.931 35.7122C174.06 35.6334 174.166 35.5207 174.237 35.3862C174.307 35.2517 174.34 35.1005 174.331 34.9489C174.322 34.7973 174.272 34.651 174.186 34.5258L166.686 23.6925C166.375 23.2433 165.627 23.2433 165.315 23.6925L157.815 34.5258C157.728 34.6508 157.677 34.7971 157.668 34.949C157.658 35.1008 157.691 35.2524 157.761 35.3872C157.832 35.5219 157.938 35.6348 158.068 35.7134C158.199 35.7921 158.348 35.8336 158.5 35.8333Z" fill="white"/>
<path d="M97.315 36.3075C97.3915 36.4185 97.4938 36.5093 97.6131 36.572C97.7324 36.6347 97.8652 36.6675 98 36.6675C98.1348 36.6675 98.2676 36.6347 98.3869 36.572C98.5063 36.5093 98.6086 36.4185 98.685 36.3075L106.185 25.4742C106.272 25.3492 106.323 25.2028 106.332 25.051C106.342 24.8991 106.309 24.7476 106.239 24.6128C106.168 24.478 106.062 24.3652 105.932 24.2865C105.801 24.2079 105.652 24.1664 105.5 24.1667H90.5C90.3482 24.1673 90.1995 24.2093 90.0697 24.2881C89.94 24.367 89.8343 24.4797 89.7638 24.6142C89.6934 24.7486 89.6609 24.8997 89.6699 25.0513C89.679 25.2028 89.7291 25.349 89.815 25.4742L97.315 36.3075Z" fill="white"/>
<path d="M23.6925 30.685L34.5258 38.185C34.6509 38.2715 34.7972 38.3222 34.9489 38.3315C35.1007 38.3408 35.2521 38.3084 35.3867 38.2379C35.5214 38.1673 35.6342 38.0613 35.7129 37.9312C35.7916 37.8011 35.8333 37.652 35.8333 37.5V22.5C35.8334 22.3479 35.7919 22.1987 35.7132 22.0685C35.6346 21.9383 35.5218 21.8321 35.3871 21.7615C35.2524 21.6908 35.1009 21.6584 34.9491 21.6677C34.7973 21.677 34.6509 21.7276 34.5258 21.8142L23.6925 29.3142C23.5821 29.3912 23.492 29.4937 23.4298 29.6131C23.3675 29.7324 23.335 29.865 23.335 29.9996C23.335 30.1342 23.3675 30.2668 23.4298 30.3861C23.492 30.5054 23.5821 30.608 23.6925 30.685Z" fill="white"/>
</svg>
