<svg width="24" height="24" viewBox="0 0 24 24" fill="none" xmlns="http://www.w3.org/2000/svg">
<path d="M7.50001 2.25C7.69892 2.25 7.88968 2.32902 8.03034 2.46967C8.17099 2.61032 8.25001 2.80109 8.25001 3V3.253C8.59334 3.25033 8.96634 3.24933 9.36901 3.25H14.631C15.0337 3.25 15.4067 3.251 15.75 3.253V3C15.75 2.80109 15.829 2.61032 15.9697 2.46967C16.1103 2.32902 16.3011 2.25 16.5 2.25C16.6989 2.25 16.8897 2.32902 17.0303 2.46967C17.171 2.61032 17.25 2.80109 17.25 3V3.301C17.262 3.301 17.2737 3.302 17.285 3.304C17.995 3.358 18.594 3.473 19.141 3.736C20.0255 4.15688 20.7545 4.84633 21.224 5.706C21.511 6.238 21.634 6.819 21.693 7.499C21.75 8.161 21.75 8.981 21.75 10.009V14.99C21.75 16.019 21.75 16.84 21.693 17.501C21.633 18.181 21.511 18.762 21.224 19.293C20.7547 20.153 20.0257 20.8429 19.141 21.264C18.594 21.527 17.995 21.642 17.285 21.696C16.589 21.75 15.725 21.75 14.631 21.75H9.37001C8.27601 21.75 7.41201 21.75 6.71601 21.696C6.00601 21.641 5.40701 21.527 4.86001 21.264C3.97551 20.8431 3.24652 20.1537 2.77701 19.294C2.49001 18.762 2.36701 18.181 2.30801 17.501C2.25101 16.839 2.25101 16.019 2.25101 14.991V10.01C2.25101 8.981 2.25101 8.16 2.30801 7.499C2.36801 6.819 2.49001 6.238 2.77701 5.707C3.24635 4.84696 3.97536 4.15714 4.86001 3.736C5.40701 3.473 6.00601 3.358 6.71601 3.304L6.75001 3.3V3C6.75001 2.80109 6.82902 2.61032 6.96968 2.46967C7.11033 2.32902 7.3011 2.25 7.50001 2.25ZM6.75001 4.806C6.17301 4.856 5.80401 4.946 5.51001 5.088C4.91042 5.37143 4.41558 5.83687 4.09601 6.418C3.98201 6.63 3.90001 6.884 3.84601 7.25H20.155C20.1 6.884 20.018 6.63 19.904 6.419C19.5849 5.83765 19.0904 5.37186 18.491 5.088C18.196 4.946 17.827 4.856 17.25 4.806V5C17.25 5.19891 17.171 5.38968 17.0303 5.53033C16.8897 5.67098 16.6989 5.75 16.5 5.75C16.3011 5.75 16.1103 5.67098 15.9697 5.53033C15.829 5.38968 15.75 5.19891 15.75 5V4.753C15.4093 4.75033 15.026 4.74933 14.6 4.75H9.40001C8.97401 4.75 8.59067 4.751 8.25001 4.753V5C8.25001 5.19891 8.17099 5.38968 8.03034 5.53033C7.88968 5.67098 7.69892 5.75 7.50001 5.75C7.3011 5.75 7.11033 5.67098 6.96968 5.53033C6.82902 5.38968 6.75001 5.19891 6.75001 5V4.806Z" fill="white"/>
</svg>
