<svg width="132" height="64" viewBox="0 0 132 64" fill="none" xmlns="http://www.w3.org/2000/svg">
<rect x="0.5" y="0.5" width="131" height="63" rx="4.5" stroke="#8A38F5" stroke-dasharray="10 5"/>
<path d="M107.5 23H92.5C92.1022 23 91.7206 23.158 91.4393 23.4393C91.158 23.7206 91 24.1022 91 24.5V39.5C91 39.8978 91.158 40.2794 91.4393 40.5607C91.7206 40.842 92.1022 41 92.5 41H107.5C107.898 41 108.279 40.842 108.561 40.5607C108.842 40.2794 109 39.8978 109 39.5V24.5C109 24.1022 108.842 23.7206 108.561 23.4393C108.279 23.158 107.898 23 107.5 23ZM92.5 39.5V24.5H107.5V39.5H92.5Z" fill="white"/>
<path d="M24 23H40C40.2652 23 40.5196 23.1054 40.7071 23.2929C40.8946 23.4804 41 23.7348 41 24V40C41 40.2652 40.8946 40.5196 40.7071 40.7071C40.5196 40.8946 40.2652 41 40 41H24C23.7348 41 23.4804 40.8946 23.2929 40.7071C23.1054 40.5196 23 40.2652 23 40V24C23 23.7348 23.1054 23.4804 23.2929 23.2929C23.4804 23.1054 23.7348 23 24 23ZM25 25V39H39V25H25ZM31.003 36L26.76 31.757L28.174 30.343L31.003 33.172L36.66 27.515L38.074 28.929L31.003 36Z" fill="white"/>
</svg>
