<svg width="30" height="30" viewBox="0 0 30 30" fill="none" xmlns="http://www.w3.org/2000/svg">
<path fill-rule="evenodd" clip-rule="evenodd" d="M13.3337 7.6675L12.7062 7.22375C11.8108 6.59005 10.7408 6.24982 9.64374 6.25H8.87874C8.37249 6.25 7.86249 6.28125 7.38624 6.45C4.40749 7.5075 2.35874 11.3688 2.50749 20.1288C2.53749 21.8938 2.94999 23.8438 4.54249 24.605C5.08574 24.8662 5.68098 25.0012 6.28374 25C6.96124 25.0111 7.62681 24.821 8.19624 24.4538C8.70874 24.1188 9.15874 23.6838 9.60874 23.2488C10.1637 22.7113 10.7187 22.1738 11.3887 21.8263C12.1186 21.4474 12.9289 21.2498 13.7512 21.25H16.25C17.0725 21.25 17.8825 21.4475 18.6125 21.825C19.2825 22.1737 19.8375 22.7113 20.3937 23.2488C20.8437 23.6838 21.2937 24.1188 21.8037 24.4538C22.2912 24.7738 22.9225 25 23.7175 25C24.3203 25.0012 24.9155 24.8662 25.4587 24.605C27.0512 23.8438 27.4637 21.8925 27.4937 20.1288C27.6425 11.3688 25.5937 7.5075 22.615 6.45125C22.1375 6.28125 21.625 6.25 21.1212 6.25H20.3562C19.2591 6.25018 18.1891 6.59085 17.2937 7.225L16.6662 7.6675C16.1789 8.01187 15.5968 8.19677 15 8.19677C14.4032 8.19677 13.8211 8.01187 13.3337 7.6675ZM20.9375 11.25C21.1861 11.25 21.4246 11.3488 21.6004 11.5246C21.7762 11.7004 21.875 11.9389 21.875 12.1875C21.875 12.4361 21.7762 12.6746 21.6004 12.8504C21.4246 13.0262 21.1861 13.125 20.9375 13.125C20.6889 13.125 20.4504 13.0262 20.2746 12.8504C20.0988 12.6746 20 12.4361 20 12.1875C20 11.9389 20.0988 11.7004 20.2746 11.5246C20.4504 11.3488 20.6889 11.25 20.9375 11.25ZM9.37499 11.5625C9.62363 11.5625 9.86209 11.6613 10.0379 11.8371C10.2137 12.0129 10.3125 12.2514 10.3125 12.5V13.4375H11.25C11.4986 13.4375 11.7371 13.5363 11.9129 13.7121C12.0887 13.8879 12.1875 14.1264 12.1875 14.375C12.1875 14.6236 12.0887 14.8621 11.9129 15.0379C11.7371 15.2137 11.4986 15.3125 11.25 15.3125H10.3125V16.25C10.3125 16.4986 10.2137 16.7371 10.0379 16.9129C9.86209 17.0887 9.62363 17.1875 9.37499 17.1875C9.12635 17.1875 8.8879 17.0887 8.71208 16.9129C8.53627 16.7371 8.43749 16.4986 8.43749 16.25V15.3125H7.49999C7.25135 15.3125 7.0129 15.2137 6.83708 15.0379C6.66127 14.8621 6.56249 14.6236 6.56249 14.375C6.56249 14.1264 6.66127 13.8879 6.83708 13.7121C7.0129 13.5363 7.25135 13.4375 7.49999 13.4375H8.43749V12.5C8.43749 12.2514 8.53627 12.0129 8.71208 11.8371C8.8879 11.6613 9.12635 11.5625 9.37499 11.5625ZM23.75 14.0625C23.75 14.3111 23.6512 14.5496 23.4754 14.7254C23.2996 14.9012 23.0611 15 22.8125 15C22.5639 15 22.3254 14.9012 22.1496 14.7254C21.9738 14.5496 21.875 14.3111 21.875 14.0625C21.875 13.8139 21.9738 13.5754 22.1496 13.3996C22.3254 13.2238 22.5639 13.125 22.8125 13.125C23.0611 13.125 23.2996 13.2238 23.4754 13.3996C23.6512 13.5754 23.75 13.8139 23.75 14.0625ZM19.0625 15C19.3111 15 19.5496 14.9012 19.7254 14.7254C19.9012 14.5496 20 14.3111 20 14.0625C20 13.8139 19.9012 13.5754 19.7254 13.3996C19.5496 13.2238 19.3111 13.125 19.0625 13.125C18.8139 13.125 18.5754 13.2238 18.3996 13.3996C18.2238 13.5754 18.125 13.8139 18.125 14.0625C18.125 14.3111 18.2238 14.5496 18.3996 14.7254C18.5754 14.9012 18.8139 15 19.0625 15ZM21.875 15.9375C21.875 15.6889 21.7762 15.4504 21.6004 15.2746C21.4246 15.0988 21.1861 15 20.9375 15C20.6889 15 20.4504 15.0988 20.2746 15.2746C20.0988 15.4504 20 15.6889 20 15.9375C20 16.1861 20.0988 16.4246 20.2746 16.6004C20.4504 16.7762 20.6889 16.875 20.9375 16.875C21.1861 16.875 21.4246 16.7762 21.6004 16.6004C21.7762 16.4246 21.875 16.1861 21.875 15.9375Z" fill="white"/>
</svg>
