<svg width="30" height="30" viewBox="0 0 30 30" fill="none" xmlns="http://www.w3.org/2000/svg">
<path d="M2.5 24.6429V11.7857C2.5 11.3333 2.61094 10.9048 2.83281 10.5C3.05469 10.0952 3.36042 9.7619 3.75 9.5L13.125 3.07143C13.6719 2.69048 14.2969 2.5 15 2.5C15.7031 2.5 16.3281 2.69048 16.875 3.07143L26.25 9.5C26.6406 9.7619 26.9469 10.0952 27.1687 10.5C27.3906 10.9048 27.501 11.3333 27.5 11.7857V24.6429C27.5 25.4286 27.1937 26.1014 26.5812 26.6614C25.9687 27.2214 25.2333 27.5009 24.375 27.5H19.6875C19.2448 27.5 18.874 27.3629 18.575 27.0886C18.276 26.8143 18.126 26.4752 18.125 26.0714V18.9286C18.125 18.5238 17.975 18.1848 17.675 17.9114C17.375 17.6381 17.0042 17.5009 16.5625 17.5H13.4375C12.9948 17.5 12.624 17.6371 12.325 17.9114C12.026 18.1857 11.876 18.5248 11.875 18.9286V26.0714C11.875 26.4762 11.725 26.8157 11.425 27.09C11.125 27.3643 10.7542 27.5009 10.3125 27.5H5.625C4.76562 27.5 4.03021 27.2205 3.41875 26.6614C2.80729 26.1024 2.50104 25.4295 2.5 24.6429Z" fill="white"/>
</svg>
