<svg width="30" height="30" viewBox="0 0 30 30" fill="none" xmlns="http://www.w3.org/2000/svg">
<path fill-rule="evenodd" clip-rule="evenodd" d="M7.69741 2.5C6.65049 2.5 5.64645 2.89509 4.90617 3.59835C4.16589 4.30161 3.75 5.25544 3.75 6.25V23.75C3.75 24.7446 4.16589 25.6984 4.90617 26.4017C5.64645 27.1049 6.65049 27.5 7.69741 27.5H15.5922C16.6392 27.5 17.6432 27.1049 18.3835 26.4017C19.1238 25.6984 19.5397 24.7446 19.5397 23.75V6.25C19.5397 5.25544 19.1238 4.30161 18.3835 3.59835C17.6432 2.89509 16.6392 2.5 15.5922 2.5H7.69741ZM21.241 9.11625C21.4877 8.88191 21.8224 8.75027 22.1713 8.75027C22.5202 8.75027 22.8548 8.88191 23.1015 9.11625L28.3648 14.1163C28.6114 14.3507 28.75 14.6685 28.75 15C28.75 15.3315 28.6114 15.6493 28.3648 15.8837L23.1015 20.8838C22.8534 21.1114 22.521 21.2374 22.176 21.2346C21.831 21.2317 21.501 21.1003 21.257 20.8685C21.0131 20.6368 20.8747 20.3232 20.8717 19.9955C20.8687 19.6678 21.0013 19.352 21.241 19.1163L24.2581 16.25H12.9606C12.6117 16.25 12.277 16.1183 12.0302 15.8839C11.7835 15.6495 11.6448 15.3315 11.6448 15C11.6448 14.6685 11.7835 14.3505 12.0302 14.1161C12.277 13.8817 12.6117 13.75 12.9606 13.75H24.2581L21.241 10.8837C20.9943 10.6493 20.8557 10.3315 20.8557 10C20.8557 9.66854 20.9943 9.35066 21.241 9.11625Z" fill="white"/>
</svg>
