<svg width="71" height="125" viewBox="0 0 71 125" fill="none" xmlns="http://www.w3.org/2000/svg">
<rect x="0.5" y="0.5" width="70" height="124" rx="4.5" stroke="#8A38F5" stroke-dasharray="10 5"/>
<path d="M22 34C22 27.373 27.373 22 34 22C40.627 22 46 27.373 46 34C46 40.627 40.627 46 34 46C32.0341 46.0028 30.0979 45.5205 28.363 44.596L23.593 45.953C23.3789 46.0138 23.1524 46.0164 22.937 45.9604C22.7215 45.9044 22.525 45.7919 22.3676 45.6345C22.2102 45.4771 22.0976 45.2805 22.0416 45.065C21.9856 44.8496 21.9882 44.6231 22.049 44.409L23.405 39.639C22.4798 37.9036 21.9972 35.9666 22 34ZM29.5 31.75C29.5 32.164 29.836 32.5 30.25 32.5H37.75C37.9489 32.5 38.1397 32.421 38.2803 32.2803C38.421 32.1397 38.5 31.9489 38.5 31.75C38.5 31.5511 38.421 31.3603 38.2803 31.2197C38.1397 31.079 37.9489 31 37.75 31H30.25C30.0511 31 29.8603 31.079 29.7197 31.2197C29.579 31.3603 29.5 31.5511 29.5 31.75ZM30.25 35.5C30.0511 35.5 29.8603 35.579 29.7197 35.7197C29.579 35.8603 29.5 36.0511 29.5 36.25C29.5 36.4489 29.579 36.6397 29.7197 36.7803C29.8603 36.921 30.0511 37 30.25 37H34.75C34.9489 37 35.1397 36.921 35.2803 36.7803C35.421 36.6397 35.5 36.4489 35.5 36.25C35.5 36.0511 35.421 35.8603 35.2803 35.7197C35.1397 35.579 34.9489 35.5 34.75 35.5H30.25Z" fill="#A9A9A9"/>
<path d="M22 91C22 84.373 27.373 79 34 79C40.627 79 46 84.373 46 91C46 97.627 40.627 103 34 103C32.0341 103.003 30.0979 102.521 28.363 101.596L23.593 102.953C23.3789 103.014 23.1524 103.016 22.937 102.96C22.7215 102.904 22.525 102.792 22.3676 102.634C22.2102 102.477 22.0976 102.28 22.0416 102.065C21.9856 101.85 21.9882 101.623 22.049 101.409L23.405 96.639C22.4798 94.9036 21.9972 92.9666 22 91ZM29.5 88.75C29.5 89.164 29.836 89.5 30.25 89.5H37.75C37.9489 89.5 38.1397 89.421 38.2803 89.2803C38.421 89.1397 38.5 88.9489 38.5 88.75C38.5 88.5511 38.421 88.3603 38.2803 88.2197C38.1397 88.079 37.9489 88 37.75 88H30.25C30.0511 88 29.8603 88.079 29.7197 88.2197C29.579 88.3603 29.5 88.5511 29.5 88.75ZM30.25 92.5C30.0511 92.5 29.8603 92.579 29.7197 92.7197C29.579 92.8603 29.5 93.0511 29.5 93.25C29.5 93.4489 29.579 93.6397 29.7197 93.7803C29.8603 93.921 30.0511 94 30.25 94H34.75C34.9489 94 35.1397 93.921 35.2803 93.7803C35.421 93.6397 35.5 93.4489 35.5 93.25C35.5 93.0511 35.421 92.8603 35.2803 92.7197C35.1397 92.579 34.9489 92.5 34.75 92.5H30.25Z" fill="#A9A9A9"/>
<circle cx="45" cy="83" r="6" fill="url(#paint0_linear_278_3122)"/>
<defs>
<linearGradient id="paint0_linear_278_3122" x1="45" y1="77" x2="45" y2="89" gradientUnits="userSpaceOnUse">
<stop stop-color="#F2680D"/>
<stop offset="1" stop-color="#CE3815"/>
</linearGradient>
</defs>
</svg>
