<svg width="28" height="28" viewBox="0 0 28 28" fill="none" xmlns="http://www.w3.org/2000/svg">
<g clip-path="url(#clip0_194_983)">
<path fill-rule="evenodd" clip-rule="evenodd" d="M2.5 14C2.5 10.15 3.58 7.32 5.448 5.448C7.32 3.58 10.15 2.5 14 2.5C17.85 2.5 20.68 3.58 22.552 5.448C24.42 7.32 25.5 10.15 25.5 14C25.5 17.85 24.42 20.68 22.552 22.552C20.68 24.42 17.85 25.5 14 25.5C10.15 25.5 7.32 24.42 5.448 22.552C3.58 20.68 2.5 17.85 2.5 14ZM14 0C9.69 0 6.146 1.216 3.68 3.68C1.214 6.144 0 9.692 0 14C0 18.308 1.216 21.854 3.68 24.32C6.148 26.782 9.692 28 14 28C18.308 28 21.854 26.784 24.32 24.32C26.782 21.852 28 18.308 28 14C28 9.692 26.784 6.146 24.32 3.68C21.852 1.218 18.308 0 14 0ZM7.902 7.986C9.36 6.528 11.438 5.828 13.916 5.828C16.51 5.828 18.664 6.596 20.126 8.188C20.258 8.33186 20.345 8.51122 20.3763 8.70394C20.4075 8.89667 20.3817 9.09433 20.302 9.27255C20.2222 9.45076 20.092 9.60174 19.9275 9.70684C19.7629 9.81194 19.5712 9.86657 19.376 9.864H19.288C17.828 9.864 16.828 10.272 16.194 10.906C15.558 11.542 15.152 12.54 15.152 14C15.152 15.46 15.558 16.46 16.192 17.094C16.828 17.728 17.828 18.136 19.288 18.136H19.376C19.5712 18.1334 19.7629 18.1881 19.9275 18.2932C20.092 18.3983 20.2222 18.5492 20.302 18.7275C20.3817 18.9057 20.4075 19.1033 20.3763 19.2961C20.345 19.4888 20.258 19.6681 20.126 19.812C18.666 21.404 16.51 22.172 13.916 22.172C11.436 22.172 9.36 21.472 7.902 20.014C6.446 18.56 5.744 16.48 5.744 14C5.744 11.52 6.442 9.442 7.902 7.986Z" fill="white"/>
</g>
<defs>
<clipPath id="clip0_194_983">
<rect width="28" height="28" fill="white"/>
</clipPath>
</defs>
</svg>
