<svg width="50" height="50" viewBox="0 0 50 50" fill="none" xmlns="http://www.w3.org/2000/svg">
<g clip-path="url(#clip0_337_2646)">
<rect width="50" height="50" fill="#1B1B1B"/>
<path d="M25 9.375C26.2432 9.375 27.4355 8.88114 28.3146 8.00206C29.1936 7.12299 29.6875 5.9307 29.6875 4.6875C29.6875 3.4443 29.1936 2.25201 28.3146 1.37294C27.4355 0.49386 26.2432 0 25 0C23.7568 0 22.5645 0.49386 21.6854 1.37294C20.8064 2.25201 20.3125 3.4443 20.3125 4.6875C20.3125 5.9307 20.8064 7.12299 21.6854 8.00206C22.5645 8.88114 23.7568 9.375 25 9.375Z" fill="white"/>
<path d="M18.5312 20.95L15.8875 47.3594C15.8034 47.9905 15.9734 48.6292 16.3602 49.135C16.747 49.6408 17.3189 49.9722 17.95 50.0563C18.5811 50.1404 19.2198 49.9704 19.7256 49.5836C20.2314 49.1968 20.5627 48.6249 20.6469 47.9938L23.1781 32.7907C23.2478 32.358 23.4692 31.9643 23.8028 31.6802C24.1364 31.396 24.5602 31.24 24.9984 31.24C25.4366 31.24 25.8605 31.396 26.1941 31.6802C26.5276 31.9643 26.7491 32.358 26.8187 32.7907L29.35 47.9938C29.4341 48.6249 29.7655 49.1968 30.2713 49.5836C30.777 49.9704 31.4157 50.1404 32.0469 50.0563C32.678 49.9722 33.2499 49.6408 33.6367 49.135C34.0235 48.6292 34.1935 47.9905 34.1094 47.3594L31.4687 20.95C31.4017 20.2626 31.4874 19.5689 31.7197 18.9184C31.952 18.268 32.3252 17.6769 32.8125 17.1875L40.625 7.13753C41.0106 6.62159 41.181 5.9762 41.1004 5.33717C41.0198 4.69814 40.6944 4.11529 40.1928 3.71125C39.6912 3.30722 39.0524 3.11349 38.4109 3.17085C37.7694 3.22821 37.1751 3.53217 36.7531 4.01878L30.1062 12C29.8424 12.3411 29.4836 12.5966 29.075 12.7344C28.3562 12.9657 26.9969 13.2844 25 13.2844C23 13.2844 21.6437 12.9657 20.9219 12.7344C20.5144 12.5961 20.1568 12.3406 19.8937 12L13.2469 4.01878C12.8289 3.51863 12.2314 3.20251 11.5827 3.13841C10.9341 3.07431 10.2862 3.26735 9.77846 3.67602C9.2707 4.08469 8.94362 4.67632 8.86759 5.32366C8.79155 5.971 8.97263 6.62232 9.37187 7.13753L17.1844 17.1875C18.175 18.175 18.6719 19.5563 18.5312 20.95Z" fill="white"/>
</g>
<defs>
<clipPath id="clip0_337_2646">
<rect width="50" height="50" fill="white"/>
</clipPath>
</defs>
</svg>
