<svg width="50" height="50" viewBox="0 0 50 50" fill="none" xmlns="http://www.w3.org/2000/svg">
<path d="M14.5833 29.1667V41.6667C14.5833 42.257 14.3833 42.7521 13.9833 43.1521C13.5833 43.5521 13.0889 43.7514 12.5 43.75C11.9111 43.7487 11.4167 43.5487 11.0167 43.15C10.6167 42.7514 10.4167 42.257 10.4167 41.6667V10.4167C10.4167 9.82643 10.6167 9.33199 11.0167 8.93337C11.4167 8.53476 11.9111 8.33476 12.5 8.33337H27.4479C27.934 8.33337 28.3681 8.48962 28.75 8.80212C29.1319 9.11462 29.375 9.51393 29.4792 10L30 12.5H39.5833C40.1736 12.5 40.6687 12.7 41.0687 13.1C41.4687 13.5 41.6681 13.9945 41.6667 14.5834V31.25C41.6667 31.8403 41.4667 32.3355 41.0667 32.7355C40.6667 33.1355 40.1722 33.3348 39.5833 33.3334H28.8021C28.316 33.3334 27.8819 33.1771 27.5 32.8646C27.1181 32.5521 26.875 32.1528 26.7708 31.6667L26.25 29.1667H14.5833Z" fill="#E8341D"/>
</svg>
