<svg width="30" height="30" viewBox="0 0 30 30" fill="none" xmlns="http://www.w3.org/2000/svg">
<path d="M14.375 4.0625C12.7198 4.06261 11.089 4.46112 9.62033 5.22435C8.15164 5.98759 6.88824 7.09313 5.93688 8.44757C4.98552 9.802 4.37416 11.3655 4.15444 13.006C3.93472 14.6466 4.11311 16.3159 4.67453 17.8729C5.23594 19.43 6.1639 20.829 7.37998 21.9518C8.59607 23.0746 10.0646 23.8882 11.6614 24.3239C13.2582 24.7595 14.9364 24.8044 16.5542 24.4548C18.172 24.1051 19.6819 23.3712 20.9563 22.315L24.3038 25.6625C24.4815 25.8281 24.7165 25.9183 24.9594 25.914C25.2023 25.9097 25.434 25.8113 25.6058 25.6395C25.7775 25.4678 25.8759 25.236 25.8802 24.9932C25.8845 24.7503 25.7944 24.5152 25.6288 24.3375L22.285 20.9925C23.5439 19.4878 24.3475 17.6553 24.6015 15.71C24.8554 13.7646 24.5492 11.7872 23.7188 10.0098C22.8883 8.23234 21.5681 6.72868 19.9131 5.67526C18.258 4.62183 16.3369 4.06236 14.375 4.0625Z" fill="white"/>
</svg>
