<svg width="28" height="28" viewBox="0 0 28 28" fill="none" xmlns="http://www.w3.org/2000/svg">
<path d="M24.997 12.9442L5.16367 3.61085C4.96396 3.51687 4.74169 3.48148 4.52266 3.50877C4.30364 3.53607 4.09685 3.62494 3.92631 3.76506C3.75577 3.90518 3.62848 4.0908 3.55922 4.30037C3.48995 4.50994 3.48156 4.73486 3.53501 4.94901L4.94901 10.6062L14 14L4.94901 17.3938L3.53501 23.051C3.48055 23.2653 3.48825 23.4907 3.55719 23.7008C3.62613 23.9109 3.75347 24.097 3.92432 24.2374C4.09517 24.3778 4.30245 24.4666 4.52193 24.4935C4.74141 24.5203 4.964 24.4842 5.16367 24.3892L24.997 15.0558C25.1974 14.9616 25.3669 14.8123 25.4856 14.6253C25.6043 14.4384 25.6674 14.2215 25.6674 14C25.6674 13.7785 25.6043 13.5616 25.4856 13.3747C25.3669 13.1877 25.1974 13.0384 24.997 12.9442Z" fill="white"/>
</svg>
