<svg width="30" height="30" viewBox="0 0 30 30" fill="none" xmlns="http://www.w3.org/2000/svg">
<path d="M14.0822 27.5C13.4913 27.5 12.9828 27.3125 12.5565 26.9375C12.1302 26.5625 11.8728 26.1042 11.7844 25.5625L11.489 23.5C11.2045 23.3958 10.9366 23.2708 10.6854 23.125C10.4342 22.9792 10.1878 22.8229 9.94617 22.6562L7.91098 23.4688C7.36388 23.6979 6.81679 23.7188 6.2697 23.5312C5.7226 23.3438 5.29587 23.0104 4.9895 22.5312L3.44669 19.9688C3.14032 19.4896 3.05278 18.9792 3.18409 18.4375C3.31539 17.8958 3.61082 17.4479 4.07038 17.0938L5.81014 15.8438C5.78825 15.6979 5.77731 15.5571 5.77731 15.4212V14.5775C5.77731 14.4425 5.78825 14.3021 5.81014 14.1562L4.07038 12.9062C3.61082 12.5521 3.31539 12.1042 3.18409 11.5625C3.05278 11.0208 3.14032 10.5104 3.44669 10.0312L4.9895 7.46875C5.29587 6.98958 5.7226 6.65625 6.2697 6.46875C6.81679 6.28125 7.36388 6.30208 7.91098 6.53125L9.94617 7.34375C10.1869 7.17708 10.4385 7.02083 10.7012 6.875C10.9638 6.72917 11.2264 6.60417 11.489 6.5L11.7844 4.4375C11.8719 3.89583 12.1293 3.4375 12.5565 3.0625C12.9836 2.6875 13.4922 2.5 14.0822 2.5H17.1678C17.7587 2.5 18.2677 2.6875 18.6949 3.0625C19.122 3.4375 19.3789 3.89583 19.4656 4.4375L19.761 6.5C20.0455 6.60417 20.3138 6.72917 20.5659 6.875C20.818 7.02083 21.064 7.17708 21.3038 7.34375L23.339 6.53125C23.8861 6.30208 24.4332 6.28125 24.9803 6.46875C25.5274 6.65625 25.9541 6.98958 26.2605 7.46875L27.8033 10.0312C28.1097 10.5104 28.1972 11.0208 28.0659 11.5625C27.9346 12.1042 27.6392 12.5521 27.1796 12.9062L25.4399 14.1562C25.4617 14.3021 25.4727 14.4429 25.4727 14.5788V15.4212C25.4727 15.5571 25.4508 15.6979 25.407 15.8438L27.1468 17.0938C27.6064 17.4479 27.9018 17.8958 28.0331 18.4375C28.1644 18.9792 28.0769 19.4896 27.7705 19.9688L26.1949 22.5312C25.8885 23.0104 25.4617 23.3438 24.9147 23.5312C24.3676 23.7188 23.8205 23.6979 23.2734 23.4688L21.3038 22.6562C21.0631 22.8229 20.8114 22.9792 20.5488 23.125C20.2862 23.2708 20.0236 23.3958 19.761 23.5L19.4656 25.5625C19.3781 26.1042 19.1211 26.5625 18.6949 26.9375C18.2686 27.3125 17.7595 27.5 17.1678 27.5H14.0822ZM15.6906 19.375C16.9599 19.375 18.0432 18.9479 18.9404 18.0938C19.8376 17.2396 20.2862 16.2083 20.2862 15C20.2862 13.7917 19.8376 12.7604 18.9404 11.9062C18.0432 11.0521 16.9599 10.625 15.6906 10.625C14.3995 10.625 13.3106 11.0521 12.4238 11.9062C11.5371 12.7604 11.0942 13.7917 11.0951 15C11.0959 16.2083 11.5393 17.2396 12.4252 18.0938C13.311 18.9479 14.3995 19.375 15.6906 19.375Z" fill="white"/>
</svg>
