<svg width="132" height="64" viewBox="0 0 132 64" fill="none" xmlns="http://www.w3.org/2000/svg">
<rect x="0.5" y="0.5" width="131" height="63" rx="4.5" stroke="#8A38F5" stroke-dasharray="10 5"/>
<path d="M32 21.5C34.7848 21.5 37.4555 22.6062 39.4246 24.5754C41.3938 26.5445 42.5 29.2152 42.5 32C42.5 34.7848 41.3938 37.4555 39.4246 39.4246C37.4555 41.3938 34.7848 42.5 32 42.5C29.2152 42.5 26.5445 41.3938 24.5754 39.4246C22.6062 37.4555 21.5 34.7848 21.5 32C21.5 29.2152 22.6062 26.5445 24.5754 24.5754C26.5445 22.6062 29.2152 21.5 32 21.5ZM30.692 34.0715L28.3595 31.7375C28.2759 31.6539 28.1766 31.5876 28.0674 31.5423C27.9581 31.497 27.841 31.4737 27.7227 31.4737C27.6045 31.4737 27.4874 31.497 27.3781 31.5423C27.2689 31.5876 27.1696 31.6539 27.086 31.7375C26.9171 31.9064 26.8222 32.1354 26.8222 32.3743C26.8222 32.6131 26.9171 32.8421 27.086 33.011L30.056 35.981C30.1394 36.065 30.2386 36.1317 30.3479 36.1773C30.4571 36.2228 30.5744 36.2462 30.6927 36.2462C30.8111 36.2462 30.9284 36.2228 31.0376 36.1773C31.1469 36.1317 31.2461 36.065 31.3295 35.981L37.4795 29.8295C37.5642 29.7462 37.6316 29.647 37.6778 29.5375C37.724 29.4281 37.7481 29.3106 37.7487 29.1918C37.7492 29.073 37.7262 28.9552 37.6811 28.8453C37.6359 28.7355 37.5694 28.6356 37.4854 28.5516C37.4015 28.4675 37.3017 28.4009 37.1919 28.3556C37.0821 28.3103 36.9644 28.2872 36.8455 28.2876C36.7267 28.288 36.6092 28.3119 36.4997 28.358C36.3902 28.4041 36.2909 28.4714 36.2075 28.556L30.692 34.0715Z" fill="#14AE5C"/>
<path fill-rule="evenodd" clip-rule="evenodd" d="M100 42C105.523 42 110 37.523 110 32C110 26.477 105.523 22 100 22C94.477 22 90 26.477 90 32C90 37.523 94.477 42 100 42ZM104.066 27.934C104.206 28.0746 104.285 28.2652 104.285 28.464C104.285 28.6628 104.206 28.8534 104.066 28.994L101.06 32L104.065 35.005C104.197 35.1472 104.27 35.3352 104.266 35.5295C104.263 35.7238 104.184 35.9092 104.047 36.0466C103.909 36.184 103.724 36.2627 103.53 36.2662C103.335 36.2696 103.147 36.1975 103.005 36.065L100 33.062L96.995 36.067C96.9263 36.1407 96.8435 36.1998 96.7515 36.2408C96.6595 36.2818 96.5602 36.3038 96.4595 36.3056C96.3588 36.3074 96.2588 36.2888 96.1654 36.2511C96.072 36.2134 95.9872 36.1573 95.916 36.086C95.8447 36.0148 95.7886 35.93 95.7509 35.8366C95.7132 35.7432 95.6946 35.6432 95.6964 35.5425C95.6982 35.4418 95.7202 35.3425 95.7612 35.2505C95.8022 35.1585 95.8613 35.0757 95.935 35.007L98.938 32L95.934 28.995C95.8603 28.9263 95.8012 28.8435 95.7602 28.7515C95.7192 28.6595 95.6972 28.5602 95.6954 28.4595C95.6936 28.3588 95.7122 28.2588 95.7499 28.1654C95.7876 28.072 95.8437 27.9872 95.915 27.916C95.9862 27.8447 96.071 27.7886 96.1644 27.7509C96.2578 27.7132 96.3578 27.6946 96.4585 27.6964C96.5592 27.6982 96.6585 27.7202 96.7505 27.7612C96.8425 27.8022 96.9253 27.8613 96.994 27.935L100 30.938L103.005 27.933C103.146 27.7925 103.336 27.7137 103.535 27.7137C103.734 27.7137 103.924 27.7925 104.065 27.933" fill="#E8341D"/>
</svg>
