<svg width="50" height="50" viewBox="0 0 50 50" fill="none" xmlns="http://www.w3.org/2000/svg">
<path d="M31.3902 45.8333C30.7558 45.8333 30.0772 45.7905 29.3506 45.697L6.25 41.6664V22.9154L15.3271 17.8278C15.3271 17.8278 22.6231 4.18752 22.6238 4.18752C27.6241 3.92384 31.1355 6.13029 29.5554 12.2861C29.0769 14.15 28.4413 16.6652 28.4413 16.6652H35.6477C38.1711 16.6652 40.3679 17.649 41.8359 19.3266C43.4421 21.1628 44.0683 23.7203 43.5971 26.5291L43.5929 26.5434C43.1531 29.0561 41.9741 35.6359 40.5543 39.2798C39.8255 41.1455 37.9974 45.8333 31.3902 45.8333Z" fill="white"/>
</svg>
