<svg width="32" height="32" viewBox="0 0 32 32" fill="none" xmlns="http://www.w3.org/2000/svg">
<path fill-rule="evenodd" clip-rule="evenodd" d="M12 2.66669C11.8232 2.66669 11.6536 2.73693 11.5286 2.86195C11.4036 2.98697 11.3333 3.15654 11.3333 3.33335V6.00002C11.3333 6.17683 11.4036 6.3464 11.5286 6.47142C11.6536 6.59645 11.8232 6.66669 12 6.66669H13.3333V9.33335C12.0956 9.33335 10.9087 9.82502 10.0335 10.7002C9.15832 11.5754 8.66666 12.7623 8.66666 14V27.3334C8.66666 27.8638 8.87737 28.3725 9.25244 28.7476C9.62752 29.1226 10.1362 29.3334 10.6667 29.3334H21.3333C21.8638 29.3334 22.3725 29.1226 22.7475 28.7476C23.1226 28.3725 23.3333 27.8638 23.3333 27.3334V14C23.3333 12.7623 22.8417 11.5754 21.9665 10.7002C21.0913 9.82502 19.9043 9.33335 18.6667 9.33335V6.66669H20C20.1768 6.66669 20.3464 6.59645 20.4714 6.47142C20.5964 6.3464 20.6667 6.17683 20.6667 6.00002V3.33335C20.6667 3.15654 20.5964 2.98697 20.4714 2.86195C20.3464 2.73693 20.1768 2.66669 20 2.66669H12ZM14.6667 10V6.66669H17.3333V10C17.3333 10.1768 17.4036 10.3464 17.5286 10.4714C17.6536 10.5964 17.8232 10.6667 18 10.6667H18.6667C19.4351 10.6665 20.18 10.9319 20.7753 11.4178C21.3705 11.9038 21.7796 12.5804 21.9333 13.3334H10.0667C10.2203 12.5804 10.6294 11.9038 11.2247 11.4178C11.82 10.9319 12.5649 10.6665 13.3333 10.6667H14C14.1768 10.6667 14.3464 10.5964 14.4714 10.4714C14.5964 10.3464 14.6667 10.1768 14.6667 10ZM18.8287 20.3574L18.3573 19.886L16.9427 21.3007L18.3573 22.7147L18.8287 22.2434L19.7713 23.186L17.8853 25.072L16.9427 24.1287L17.414 23.6574L16 22.2434L14.5867 23.6567L15.0573 24.1287L14.1147 25.0714L13.6433 24.6L12.7 23.6574L12.2287 23.186L13.1713 22.2427L13.6433 22.7147L15.0567 21.3007L13.6433 19.886L13.1713 20.3574L12.2287 19.4147L12.7 18.9434L13.6427 18.0007L14.1147 17.5294L15.0573 18.472L14.586 18.9434L16 20.358L17.4147 18.9434L16.9427 18.4714L17.8853 17.5287L19.7713 19.414L18.8287 20.3574Z" fill="white"/>
</svg>
