<svg width="94" height="150" viewBox="0 0 94 150" fill="none" xmlns="http://www.w3.org/2000/svg">
<rect x="0.5" y="1.25" width="92.5" height="147.5" rx="4.5" stroke="#8A38F5" stroke-dasharray="10 5"/>
<path fill-rule="evenodd" clip-rule="evenodd" d="M45 24.9167C47.7359 24.9167 50.445 25.4555 52.9726 26.5025C55.5002 27.5495 57.7969 29.084 59.7314 31.0186C61.666 32.9532 63.2006 35.2498 64.2475 37.7774C65.2945 40.305 65.8334 43.0141 65.8334 45.75C65.8334 57.256 56.5059 66.5834 45 66.5834C33.4941 66.5834 24.1667 57.256 24.1667 45.75C24.1667 34.2441 33.4941 24.9167 45 24.9167ZM47.0834 47.8334H42.9167C37.759 47.8334 33.3309 50.9571 31.4211 55.4162C34.443 59.6536 39.3988 62.4167 45 62.4167C50.6012 62.4167 55.557 59.6536 58.579 55.4159C56.6691 50.9571 52.2411 47.8334 47.0834 47.8334ZM45 31.1667C41.5482 31.1667 38.75 33.9649 38.75 37.4167C38.75 40.8685 41.5482 43.6667 45 43.6667C48.4517 43.6667 51.25 40.8685 51.25 37.4167C51.25 33.9649 48.4518 31.1667 45 31.1667Z" fill="white"/>
<circle cx="64" cy="30.75" r="5.5" fill="#14AE5C" stroke="white"/>
<path fill-rule="evenodd" clip-rule="evenodd" d="M45.5 83.4167C48.2359 83.4167 50.945 83.9555 53.4726 85.0025C56.0002 86.0495 58.2969 87.584 60.2314 89.5186C62.166 91.4532 63.7006 93.7498 64.7475 96.2774C65.7945 98.805 66.3334 101.514 66.3334 104.25C66.3334 115.756 57.0059 125.083 45.5 125.083C33.9941 125.083 24.6667 115.756 24.6667 104.25C24.6667 92.7441 33.9941 83.4167 45.5 83.4167ZM47.5834 106.333H43.4167C38.259 106.333 33.8309 109.457 31.9211 113.916C34.943 118.154 39.8988 120.917 45.5 120.917C51.1012 120.917 56.057 118.154 59.079 113.916C57.1691 109.457 52.7411 106.333 47.5834 106.333ZM45.5 89.6667C42.0482 89.6667 39.25 92.4649 39.25 95.9167C39.25 99.3685 42.0482 102.167 45.5 102.167C48.9517 102.167 51.75 99.3685 51.75 95.9167C51.75 92.4649 48.9518 89.6667 45.5 89.6667Z" fill="white"/>
<circle cx="64.5" cy="89.25" r="5.5" fill="#A9A9A9" stroke="white"/>
</svg>
