<svg width="63" height="63" viewBox="0 0 63 63" fill="none" xmlns="http://www.w3.org/2000/svg">
<path fill-rule="evenodd" clip-rule="evenodd" d="M47.25 5.25002C47.25 4.69307 47.4713 4.15893 47.8651 3.7651C48.2589 3.37127 48.7931 3.15002 49.35 3.15002H51.45C52.007 3.15002 52.5411 3.37127 52.9349 3.7651C53.3288 4.15893 53.55 4.69307 53.55 5.25002V9.45002H57.75C58.307 9.45002 58.8411 9.67127 59.2349 10.0651C59.6288 10.4589 59.85 10.9931 59.85 11.55V13.65C59.85 14.207 59.6288 14.7411 59.2349 15.1349C58.8411 15.5288 58.307 15.75 57.75 15.75H53.55V19.95C53.55 20.507 53.3288 21.0411 52.9349 21.4349C52.5411 21.8288 52.007 22.05 51.45 22.05H49.35C48.7931 22.05 48.2589 21.8288 47.8651 21.4349C47.4713 21.0411 47.25 20.507 47.25 19.95V15.75H43.05C42.493 15.75 41.9589 15.5288 41.5651 15.1349C41.1713 14.7411 40.95 14.207 40.95 13.65V11.55C40.95 10.9931 41.1713 10.4589 41.5651 10.0651C41.9589 9.67127 42.493 9.45002 43.05 9.45002H47.25V5.25002Z" fill="white"/>
<path fill-rule="evenodd" clip-rule="evenodd" d="M25.2 14.2C27.9578 14.2 30.6885 14.7432 33.2364 15.7985C35.7842 16.8539 38.0993 18.4007 40.0493 20.3507C41.9993 22.3008 43.5462 24.6158 44.6015 27.1636C45.6569 29.7115 46.2001 32.4422 46.2001 35.2C46.2001 46.798 36.798 56.2001 25.2 56.2001C13.6021 56.2001 4.20004 46.798 4.20004 35.2C4.20004 23.6021 13.6021 14.2 25.2 14.2ZM27.3001 37.3H23.1C17.9011 37.3 13.4376 40.4488 11.5125 44.9435C14.5585 49.2148 19.554 52 25.2 52C30.846 52 35.8415 49.2148 38.8876 44.9432C36.9625 40.4488 32.4991 37.3 27.3001 37.3ZM25.2 20.5C21.7206 20.5 18.9 23.3206 18.9 26.8C18.9 30.2794 21.7206 33.1 25.2 33.1C28.6794 33.1 31.5 30.2794 31.5 26.8C31.5 23.3206 28.6795 20.5 25.2 20.5Z" fill="white"/>
</svg>
