<svg width="50" height="50" viewBox="0 0 50 50" fill="none" xmlns="http://www.w3.org/2000/svg">
<path d="M26.25 4.58335C25.8894 4.31289 25.4508 4.16669 25 4.16669C24.5492 4.16669 24.1106 4.31289 23.75 4.58335C22.8821 5.24831 22.0817 5.99705 21.3604 6.81877C20.2708 8.04585 18.75 10.1146 18.75 12.5C18.75 14.1576 19.4085 15.7473 20.5806 16.9194C21.7527 18.0915 23.3424 18.75 25 18.75H12.5C10.8424 18.75 9.25269 19.4085 8.08058 20.5806C6.90848 21.7527 6.25 23.3424 6.25 25V29.1667C6.25 31.7417 9.18958 33.2125 11.25 31.6667L12.6396 30.625C13.0002 30.3546 13.4388 30.2084 13.8896 30.2084C14.3404 30.2084 14.779 30.3546 15.1396 30.625L15.6937 31.0417C16.7756 31.8531 18.0914 32.2917 19.4437 32.2917C20.7961 32.2917 22.1119 31.8531 23.1938 31.0417L23.75 30.625C24.1106 30.3546 24.5492 30.2084 25 30.2084C25.4508 30.2084 25.8894 30.3546 26.25 30.625L26.8062 31.0417C27.8881 31.8531 29.2039 32.2917 30.5562 32.2917C31.9086 32.2917 33.2244 31.8531 34.3062 31.0417L34.8604 30.625C35.221 30.3546 35.6596 30.2084 36.1104 30.2084C36.5612 30.2084 36.9998 30.3546 37.3604 30.625L38.75 31.6667C40.8104 33.2125 43.75 31.7417 43.75 29.1667V25C43.75 23.3424 43.0915 21.7527 41.9194 20.5806C40.7473 19.4085 39.1576 18.75 37.5 18.75H25C26.6576 18.75 28.2473 18.0915 29.4194 16.9194C30.5915 15.7473 31.25 14.1576 31.25 12.5C31.25 10.1146 29.7292 8.04585 28.6396 6.81877C27.9187 6.00627 27.1187 5.23544 26.25 4.58335ZM8.33333 36.2813V41.6667C8.33333 42.7718 8.77232 43.8316 9.55372 44.613C10.3351 45.3944 11.3949 45.8334 12.5 45.8334H37.5C38.6051 45.8334 39.6649 45.3944 40.4463 44.613C41.2277 43.8316 41.6667 42.7718 41.6667 41.6667V36.2813C41.1818 36.4564 40.6608 36.5071 40.1513 36.4289C39.6417 36.3506 39.16 36.1459 38.75 35.8334L37.3604 34.7917C36.9998 34.5212 36.5612 34.375 36.1104 34.375C35.6596 34.375 35.221 34.5212 34.8604 34.7917L34.3062 35.2084C33.2244 36.0197 31.9086 36.4584 30.5562 36.4584C29.2039 36.4584 27.8881 36.0197 26.8062 35.2084L26.25 34.7917C25.8894 34.5212 25.4508 34.375 25 34.375C24.5492 34.375 24.1106 34.5212 23.75 34.7917L23.1938 35.2084C22.1119 36.0197 20.7961 36.4584 19.4437 36.4584C18.0914 36.4584 16.7756 36.0197 15.6937 35.2084L15.1396 34.7917C14.779 34.5212 14.3404 34.375 13.8896 34.375C13.4388 34.375 13.0002 34.5212 12.6396 34.7917L11.25 35.8334C10.84 36.1459 10.3583 36.3506 9.84873 36.4289C9.3392 36.5071 8.81818 36.4564 8.33333 36.2813Z" fill="white"/>
</svg>
