<svg width="18" height="18" viewBox="0 0 18 18" fill="none" xmlns="http://www.w3.org/2000/svg">
<path d="M2.824 0.631951L9 6.80795L15.144 0.663951C15.2797 0.519499 15.4432 0.403943 15.6247 0.324211C15.8061 0.244479 16.0018 0.202214 16.2 0.199951C16.6243 0.199951 17.0313 0.368522 17.3314 0.66858C17.6314 0.968638 17.8 1.3756 17.8 1.79995C17.8037 1.99611 17.7673 2.19097 17.693 2.37256C17.6188 2.55415 17.5081 2.71865 17.368 2.85595L11.144 8.99995L17.368 15.224C17.6317 15.4819 17.7863 15.8313 17.8 16.2C17.8 16.6243 17.6314 17.0313 17.3314 17.3313C17.0313 17.6314 16.6243 17.8 16.2 17.8C15.9961 17.8084 15.7926 17.7744 15.6026 17.7C15.4125 17.6256 15.24 17.5126 15.096 17.368L9 11.192L2.84 17.352C2.70481 17.4916 2.5433 17.6031 2.3648 17.68C2.1863 17.7569 1.99434 17.7976 1.8 17.8C1.37565 17.8 0.968685 17.6314 0.668627 17.3313C0.368569 17.0313 0.199998 16.6243 0.199998 16.2C0.196267 16.0038 0.232663 15.8089 0.30695 15.6273C0.381237 15.4458 0.491849 15.2813 0.631998 15.144L6.856 8.99995L0.631998 2.77595C0.368294 2.51797 0.213661 2.16861 0.199998 1.79995C0.199998 1.3756 0.368569 0.968638 0.668627 0.66858C0.968685 0.368522 1.37565 0.199951 1.8 0.199951C2.184 0.204751 2.552 0.359951 2.824 0.631951Z" fill="white"/>
</svg>
