<svg width="48" height="48" viewBox="0 0 48 48" fill="none" xmlns="http://www.w3.org/2000/svg">
<g clip-path="url(#clip0_141_350)">
<path d="M7.074 -1.41601e-05C4.33 -1.41601e-05 3.32 1.01199 3.32 3.75799V36.88C3.31767 37.1692 3.33102 37.4583 3.36 37.746C3.422 38.346 3.434 38.926 3.992 39.586C4.046 39.652 4.614 40.076 4.614 40.076C4.92 40.226 5.13 40.336 5.474 40.476L22.144 47.458C23.01 47.856 23.372 48.01 24 47.998H24.004C24.632 48.01 24.994 47.856 25.86 47.458L42.53 40.474C42.874 40.334 43.084 40.226 43.39 40.074C43.39 40.074 43.958 39.652 44.012 39.588C44.572 38.928 44.582 38.346 44.644 37.748C44.673 37.4596 44.6864 37.1698 44.684 36.88V3.75799C44.684 1.01199 43.672 -0.00201416 40.928 -0.00201416L7.074 -1.41601e-05ZM33.806 6.21999H35.166C37.442 6.21999 38.542 7.32599 38.542 9.61199V13.372H35.794V9.77199C35.794 9.03399 35.454 8.69199 34.748 8.69199H34.278C33.544 8.69199 33.204 9.03199 33.204 9.76999V21.39C33.204 22.128 33.544 22.47 34.278 22.47H34.802C35.508 22.47 35.848 22.128 35.848 21.39V17.238H38.594V21.524C38.594 23.812 37.47 24.944 35.194 24.944H33.806C31.53 24.944 30.406 23.812 30.406 21.524V9.63999C30.406 7.35199 31.53 6.22199 33.806 6.22199V6.21999ZM9.434 6.37999H15.662V8.92799H12.234V14.134H15.53V16.684H12.234V22.232H15.714V24.782H9.434V6.37999ZM17.066 6.37999H21.462C23.738 6.37999 24.862 7.50799 24.862 9.79599V14.686C24.862 16.974 23.738 18.106 21.462 18.106H19.864V24.782H17.064L17.066 6.37999ZM26.126 6.37999H28.926V24.782H26.126V6.37999ZM19.866 8.84999V15.634H21.016C21.724 15.634 22.062 15.292 22.062 14.554V9.92999C22.062 9.19399 21.722 8.84999 21.016 8.84999H19.866ZM12.386 29.144C12.7897 29.1452 13.1899 29.2184 13.568 29.36C13.9246 29.5056 14.2554 29.7075 14.548 29.958L13.644 31.05C13.458 30.8917 13.2506 30.7604 13.028 30.66C12.798 30.565 12.5508 30.5186 12.302 30.524C12.1091 30.525 11.9184 30.5658 11.742 30.644C11.5724 30.7217 11.4201 30.8326 11.294 30.97C11.1649 31.1125 11.0626 31.2772 10.992 31.456C10.9168 31.6463 10.8787 31.8493 10.88 32.054V32.07C10.8806 32.2816 10.9185 32.4915 10.992 32.69C11.0612 32.8735 11.1682 33.0405 11.306 33.18C11.4409 33.3184 11.6029 33.4273 11.782 33.5C11.9746 33.5776 12.1804 33.617 12.388 33.616C12.701 33.6274 13.0104 33.5468 13.278 33.384V32.706H12.182V31.576H14.74V34.086C14.424 34.3428 14.0706 34.5499 13.692 34.7C13.2569 34.8698 12.793 34.9534 12.326 34.946C11.9146 34.9527 11.5058 34.8801 11.122 34.732C10.7682 34.5943 10.4438 34.3907 10.166 34.132C9.89539 33.8741 9.67913 33.5647 9.53 33.222C9.37162 32.8561 9.29321 32.4606 9.3 32.062V32.046C9.29477 31.6544 9.37176 31.266 9.526 30.906C9.67487 30.5631 9.8865 30.2511 10.15 29.986C10.4206 29.7176 10.7432 29.5073 11.098 29.368C11.4788 29.2182 11.8848 29.1428 12.294 29.146H12.384L12.386 29.144ZM36.312 29.16C36.7273 29.1587 37.1402 29.2222 37.536 29.348C37.9048 29.4696 38.2484 29.6573 38.55 29.902L37.778 30.994C37.5382 30.822 37.2757 30.684 36.998 30.584C36.7488 30.4949 36.4866 30.4476 36.222 30.444C36.0759 30.4343 35.9304 30.4707 35.806 30.548C35.7631 30.575 35.7277 30.6125 35.7033 30.6569C35.6788 30.7014 35.666 30.7513 35.666 30.802V30.818C35.6649 30.877 35.6801 30.9351 35.71 30.986C35.7486 31.0422 35.8009 31.0877 35.862 31.118C35.9567 31.1657 36.055 31.2058 36.156 31.238C36.28 31.278 36.4373 31.3187 36.628 31.36C36.9203 31.4198 37.2078 31.5014 37.488 31.604C37.7217 31.6855 37.9426 31.8 38.144 31.944C38.3169 32.0702 38.4585 32.2344 38.558 32.424C38.6577 32.6344 38.7063 32.8653 38.7 33.098V33.114C38.7026 33.3774 38.6473 33.6382 38.538 33.878C38.4314 34.1008 38.2746 34.2959 38.08 34.448C37.871 34.6139 37.631 34.7363 37.374 34.808C37.0749 34.8931 36.765 34.9342 36.454 34.93C35.9711 34.9311 35.4914 34.8527 35.034 34.698C34.5957 34.5504 34.1922 34.3149 33.848 34.006L34.708 32.978C35.2627 33.4247 35.8627 33.648 36.508 33.648C36.6714 33.6572 36.8344 33.6227 36.98 33.548C37.0304 33.5198 37.0723 33.4786 37.1011 33.4286C37.13 33.3786 37.1448 33.3217 37.144 33.264V33.248C37.1448 33.194 37.131 33.1408 37.104 33.094C37.0671 33.0385 37.0169 32.9931 36.958 32.962C36.866 32.9133 36.7704 32.8718 36.672 32.838C36.5184 32.7904 36.3629 32.7491 36.206 32.714C35.9276 32.6505 35.652 32.5751 35.38 32.488C35.1453 32.4132 34.9224 32.3055 34.718 32.168C34.5335 32.0436 34.3813 31.877 34.274 31.682C34.1585 31.46 34.1021 31.2121 34.11 30.962V30.946C34.1096 30.699 34.1599 30.4546 34.258 30.228C34.3565 30.0097 34.5028 29.8162 34.686 29.662C34.8864 29.4955 35.1174 29.3699 35.366 29.292C35.6555 29.1997 35.9581 29.1551 36.262 29.16H36.312ZM17.596 29.21H19.08L21.446 34.83H19.796L19.39 33.832H17.246L16.85 34.828H15.23L17.596 29.21ZM21.99 29.25H23.618L24.944 31.41L26.27 29.25H27.898V34.83H26.366V31.626L24.944 33.808H24.912L23.498 31.642V34.828H21.99V29.25ZM28.928 29.25H33.398V30.566H30.452V31.41H33.12V32.63H30.452V33.514H33.438V34.83H28.928V29.25ZM18.328 31.044L17.698 32.63H18.946L18.328 31.044ZM16.038 41.424H32.066L23.886 44.12L16.038 41.424Z" fill="white"/>
</g>
<defs>
<clipPath id="clip0_141_350">
<rect width="48" height="48" fill="white"/>
</clipPath>
</defs>
</svg>
