<svg width="28" height="30" viewBox="0 0 28 30" fill="none" xmlns="http://www.w3.org/2000/svg">
<g filter="url(#filter0_d_764_552)">
<path d="M19.562 21.56C19.3999 21.5596 19.2403 21.5197 19.097 21.444L14 18.764L8.90301 21.444C8.73797 21.5304 8.55206 21.5691 8.36624 21.5555C8.18042 21.542 8.00208 21.4768 7.85132 21.3673C7.70057 21.2578 7.5834 21.1084 7.51302 20.9359C7.44264 20.7634 7.42186 20.5746 7.45301 20.391L8.42601 14.715L4.30201 10.695C4.1686 10.5647 4.07426 10.3997 4.02965 10.2187C3.98504 10.0377 3.99194 9.84775 4.04956 9.67042C4.10717 9.49309 4.21322 9.33541 4.35573 9.21517C4.49823 9.09492 4.67151 9.01692 4.85601 8.98996L10.555 8.16196L13.104 2.99796C13.1958 2.8418 13.3269 2.71233 13.4841 2.62238C13.6413 2.53243 13.8194 2.48511 14.0005 2.48511C14.1817 2.48511 14.3597 2.53243 14.5169 2.62238C14.6742 2.71233 14.8052 2.8418 14.897 2.99796L17.445 8.16196L23.144 8.98996C23.3285 9.01692 23.5018 9.09492 23.6443 9.21517C23.7868 9.33541 23.8928 9.49309 23.9505 9.67042C24.0081 9.84775 24.015 10.0377 23.9704 10.2187C23.9258 10.3997 23.8314 10.5647 23.698 10.695L19.574 14.715L20.548 20.391C20.5726 20.5344 20.5656 20.6816 20.5274 20.822C20.4893 20.9625 20.4209 21.093 20.3271 21.2043C20.2333 21.3156 20.1163 21.4051 19.9844 21.4666C19.8524 21.528 19.7076 21.5599 19.562 21.56Z" fill="#FFB31C"/>
</g>
<defs>
<filter id="filter0_d_764_552" x="-2" y="0" width="32" height="32" filterUnits="userSpaceOnUse" color-interpolation-filters="sRGB">
<feFlood flood-opacity="0" result="BackgroundImageFix"/>
<feColorMatrix in="SourceAlpha" type="matrix" values="0 0 0 0 0 0 0 0 0 0 0 0 0 0 0 0 0 0 127 0" result="hardAlpha"/>
<feOffset dy="4"/>
<feGaussianBlur stdDeviation="2"/>
<feComposite in2="hardAlpha" operator="out"/>
<feColorMatrix type="matrix" values="0 0 0 0 0 0 0 0 0 0 0 0 0 0 0 0 0 0 0.25 0"/>
<feBlend mode="normal" in2="BackgroundImageFix" result="effect1_dropShadow_764_552"/>
<feBlend mode="normal" in="SourceGraphic" in2="effect1_dropShadow_764_552" result="shape"/>
</filter>
</defs>
</svg>
