<svg width="46" height="46" viewBox="0 0 46 46" fill="none" xmlns="http://www.w3.org/2000/svg">
<path fill-rule="evenodd" clip-rule="evenodd" d="M20.2538 11.6163L19.3001 10.944C17.9391 9.98392 16.3127 9.46848 14.6454 9.46875H13.4826C12.7132 9.46875 11.938 9.51609 11.2142 9.77175C6.68674 11.3739 3.57282 17.2237 3.79891 30.4951C3.8445 33.169 4.47147 36.1233 6.89193 37.2766C7.71761 37.6723 8.62232 37.8768 9.53847 37.875C10.5682 37.8918 11.5798 37.6038 12.4453 37.0474C13.2243 36.5399 13.9082 35.8809 14.5922 35.2219C15.4357 34.4075 16.2793 33.5932 17.2976 33.0668C18.407 32.4928 19.6386 32.1934 20.8884 32.1938H24.6863C25.9364 32.1938 27.1675 32.493 28.2771 33.0649C29.2954 33.5932 30.139 34.4075 30.9844 35.2219C31.6684 35.8809 32.3523 36.5399 33.1275 37.0474C33.8685 37.5322 34.8279 37.875 36.0362 37.875C36.9524 37.8768 37.8571 37.6723 38.6828 37.2766C41.1032 36.1233 41.7302 33.1671 41.7758 30.4951C42.0019 17.2237 38.888 11.3739 34.3605 9.77364C33.6348 9.51609 32.8558 9.46875 32.0902 9.46875H30.9274C29.2599 9.46903 27.6335 9.98514 26.2727 10.9459L25.319 11.6163C24.5782 12.138 23.6934 12.4181 22.7864 12.4181C21.8794 12.4181 20.9946 12.138 20.2538 11.6163ZM31.8109 17.0438C32.1888 17.0438 32.5512 17.1934 32.8184 17.4598C33.0857 17.7261 33.2358 18.0874 33.2358 18.4641C33.2358 18.8408 33.0857 19.202 32.8184 19.4684C32.5512 19.7347 32.1888 19.8844 31.8109 19.8844C31.433 19.8844 31.0705 19.7347 30.8033 19.4684C30.5361 19.202 30.386 18.8408 30.386 18.4641C30.386 18.0874 30.5361 17.7261 30.8033 17.4598C31.0705 17.1934 31.433 17.0438 31.8109 17.0438ZM14.2369 17.5172C14.6148 17.5172 14.9772 17.6668 15.2445 17.9332C15.5117 18.1995 15.6618 18.5608 15.6618 18.9375V20.3578H17.0867C17.4646 20.3578 17.8271 20.5075 18.0943 20.7738C18.3615 21.0402 18.5117 21.4014 18.5117 21.7781C18.5117 22.1548 18.3615 22.5161 18.0943 22.7824C17.8271 23.0488 17.4646 23.1984 17.0867 23.1984H15.6618V24.6188C15.6618 24.9954 15.5117 25.3567 15.2445 25.6231C14.9772 25.8894 14.6148 26.0391 14.2369 26.0391C13.859 26.0391 13.4966 25.8894 13.2293 25.6231C12.9621 25.3567 12.812 24.9954 12.812 24.6188V23.1984H11.3871C11.0092 23.1984 10.6467 23.0488 10.3795 22.7824C10.1123 22.5161 9.96215 22.1548 9.96215 21.7781C9.96215 21.4014 10.1123 21.0402 10.3795 20.7738C10.6467 20.5075 11.0092 20.3578 11.3871 20.3578H12.812V18.9375C12.812 18.5608 12.9621 18.1995 13.2293 17.9332C13.4966 17.6668 13.859 17.5172 14.2369 17.5172ZM36.0856 21.3047C36.0856 21.6814 35.9355 22.0426 35.6683 22.309C35.4011 22.5754 35.0386 22.725 34.6607 22.725C34.2828 22.725 33.9204 22.5754 33.6531 22.309C33.3859 22.0426 33.2358 21.6814 33.2358 21.3047C33.2358 20.928 33.3859 20.5667 33.6531 20.3004C33.9204 20.034 34.2828 19.8844 34.6607 19.8844C35.0386 19.8844 35.4011 20.034 35.6683 20.3004C35.9355 20.5667 36.0856 20.928 36.0856 21.3047ZM28.961 22.725C29.339 22.725 29.7014 22.5754 29.9686 22.309C30.2358 22.0426 30.386 21.6814 30.386 21.3047C30.386 20.928 30.2358 20.5667 29.9686 20.3004C29.7014 20.034 29.339 19.8844 28.961 19.8844C28.5831 19.8844 28.2207 20.034 27.9535 20.3004C27.6863 20.5667 27.5361 20.928 27.5361 21.3047C27.5361 21.6814 27.6863 22.0426 27.9535 22.309C28.2207 22.5754 28.5831 22.725 28.961 22.725ZM33.2358 24.1453C33.2358 23.7686 33.0857 23.4074 32.8184 23.141C32.5512 22.8746 32.1888 22.725 31.8109 22.725C31.433 22.725 31.0705 22.8746 30.8033 23.141C30.5361 23.4074 30.386 23.7686 30.386 24.1453C30.386 24.522 30.5361 24.8833 30.8033 25.1496C31.0705 25.416 31.433 25.5656 31.8109 25.5656C32.1888 25.5656 32.5512 25.416 32.8184 25.1496C33.0857 24.8833 33.2358 24.522 33.2358 24.1453Z" fill="white"/>
</svg>
