<svg width="46" height="46" viewBox="0 0 46 46" fill="none" xmlns="http://www.w3.org/2000/svg">
<path fill-rule="evenodd" clip-rule="evenodd" d="M20.2006 11.6163L19.25 10.944C17.8934 9.98392 16.2723 9.46848 14.6103 9.46875H13.4513C12.6843 9.46875 11.9117 9.51609 11.1902 9.77175C6.67737 11.3739 3.57351 17.2237 3.79887 30.4951C3.84432 33.169 4.46926 36.1233 6.88189 37.2766C7.70491 37.6723 8.6067 37.8768 9.51989 37.875C10.5463 37.8918 11.5546 37.6038 12.4173 37.0474C13.1938 36.5399 13.8755 35.8809 14.5573 35.2219C15.3981 34.4075 16.2389 33.5932 17.254 33.0668C18.3597 32.4928 19.5873 32.1934 20.8332 32.1938H24.6188C25.8648 32.1938 27.092 32.493 28.1979 33.0649C29.213 33.5932 30.0538 34.4075 30.8965 35.2219C31.5783 35.8809 32.26 36.5399 33.0327 37.0474C33.7713 37.5322 34.7276 37.875 35.932 37.875C36.8452 37.8768 37.747 37.6723 38.57 37.2766C40.9827 36.1233 41.6076 33.1671 41.653 30.4951C41.8784 17.2237 38.7745 11.3739 34.2617 9.77364C33.5383 9.51609 32.7619 9.46875 31.9987 9.46875H30.8397C29.1776 9.46903 27.5564 9.98514 26.2 10.9459L25.2494 11.6163C24.511 12.138 23.6291 12.4181 22.725 12.4181C21.8209 12.4181 20.939 12.138 20.2006 11.6163ZM31.7203 17.0438C32.097 17.0438 32.4583 17.1934 32.7246 17.4598C32.991 17.7261 33.1406 18.0874 33.1406 18.4641C33.1406 18.8408 32.991 19.202 32.7246 19.4684C32.4583 19.7347 32.097 19.8844 31.7203 19.8844C31.3436 19.8844 30.9824 19.7347 30.716 19.4684C30.4496 19.202 30.3 18.8408 30.3 18.4641C30.3 18.0874 30.4496 17.7261 30.716 17.4598C30.9824 17.1934 31.3436 17.0438 31.7203 17.0438ZM14.2031 17.5172C14.5798 17.5172 14.9411 17.6668 15.2074 17.9332C15.4738 18.1995 15.6234 18.5608 15.6234 18.9375V20.3578H17.0438C17.4204 20.3578 17.7817 20.5075 18.0481 20.7738C18.3144 21.0402 18.4641 21.4014 18.4641 21.7781C18.4641 22.1548 18.3144 22.5161 18.0481 22.7824C17.7817 23.0488 17.4204 23.1984 17.0438 23.1984H15.6234V24.6188C15.6234 24.9954 15.4738 25.3567 15.2074 25.6231C14.9411 25.8894 14.5798 26.0391 14.2031 26.0391C13.8264 26.0391 13.4652 25.8894 13.1988 25.6231C12.9325 25.3567 12.7828 24.9954 12.7828 24.6188V23.1984H11.3625C10.9858 23.1984 10.6246 23.0488 10.3582 22.7824C10.0918 22.5161 9.9422 22.1548 9.9422 21.7781C9.9422 21.4014 10.0918 21.0402 10.3582 20.7738C10.6246 20.5075 10.9858 20.3578 11.3625 20.3578H12.7828V18.9375C12.7828 18.5608 12.9325 18.1995 13.1988 17.9332C13.4652 17.6668 13.8264 17.5172 14.2031 17.5172ZM35.9813 21.3047C35.9813 21.6814 35.8316 22.0426 35.5653 22.309C35.2989 22.5754 34.9376 22.725 34.5609 22.725C34.1843 22.725 33.823 22.5754 33.5566 22.309C33.2903 22.0426 33.1406 21.6814 33.1406 21.3047C33.1406 20.928 33.2903 20.5667 33.5566 20.3004C33.823 20.034 34.1843 19.8844 34.5609 19.8844C34.9376 19.8844 35.2989 20.034 35.5653 20.3004C35.8316 20.5667 35.9813 20.928 35.9813 21.3047ZM28.8797 22.725C29.2564 22.725 29.6176 22.5754 29.884 22.309C30.1504 22.0426 30.3 21.6814 30.3 21.3047C30.3 20.928 30.1504 20.5667 29.884 20.3004C29.6176 20.034 29.2564 19.8844 28.8797 19.8844C28.503 19.8844 28.1417 20.034 27.8754 20.3004C27.609 20.5667 27.4594 20.928 27.4594 21.3047C27.4594 21.6814 27.609 22.0426 27.8754 22.309C28.1417 22.5754 28.503 22.725 28.8797 22.725ZM33.1406 24.1453C33.1406 23.7686 32.991 23.4074 32.7246 23.141C32.4583 22.8746 32.097 22.725 31.7203 22.725C31.3436 22.725 30.9824 22.8746 30.716 23.141C30.4496 23.4074 30.3 23.7686 30.3 24.1453C30.3 24.522 30.4496 24.8833 30.716 25.1496C30.9824 25.416 31.3436 25.5656 31.7203 25.5656C32.097 25.5656 32.4583 25.416 32.7246 25.1496C32.991 24.8833 33.1406 24.522 33.1406 24.1453Z" fill="url(#paint0_linear_1066_3447)"/>
<defs>
<linearGradient id="paint0_linear_1066_3447" x1="22.726" y1="9.46875" x2="22.726" y2="37.8757" gradientUnits="userSpaceOnUse">
<stop stop-color="#F2680D"/>
<stop offset="1" stop-color="#CE3815"/>
</linearGradient>
</defs>
</svg>
