<svg width="48" height="48" viewBox="0 0 48 48" fill="none" xmlns="http://www.w3.org/2000/svg">
<path d="M12 24C11.9971 26.8329 12.9966 29.5755 14.8215 31.7423C16.6464 33.9091 19.179 35.3605 21.9711 35.8394C24.7633 36.3184 27.6348 35.7941 30.0775 34.3593C32.5202 32.9246 34.3766 30.6719 35.318 28H24V20H43.61V28H43.6C41.746 37.128 33.676 44 24 44C12.954 44 4 35.046 4 24C4 12.954 12.954 4.00001 24 4.00001C27.269 3.99768 30.4887 4.7975 33.3766 6.32934C36.2645 7.86117 38.7325 10.0782 40.564 12.786L34.008 17.376C32.5848 15.2248 30.5063 13.5895 28.0807 12.7123C25.6551 11.8352 23.0114 11.763 20.5415 12.5064C18.0716 13.2498 15.9069 14.7692 14.3684 16.8395C12.8299 18.9097 11.9994 21.4207 12 24Z" fill="white"/>
</svg>
