<svg width="71" height="128" viewBox="0 0 71 128" fill="none" xmlns="http://www.w3.org/2000/svg">
<rect x="0.5" y="0.5" width="70" height="127" rx="4.5" stroke="#8A38F5" stroke-dasharray="10 5"/>
<path d="M25 43.75V41.25H27.5V32.5C27.5 30.7708 28.0208 29.2346 29.0625 27.8913C30.1042 26.5479 31.4583 25.6675 33.125 25.25V24.375C33.125 23.8542 33.3075 23.4117 33.6725 23.0475C34.0375 22.6833 34.48 22.5008 35 22.5C35.52 22.4992 35.9629 22.6817 36.3287 23.0475C36.6946 23.4133 36.8767 23.8558 36.875 24.375V25.25C38.5417 25.6667 39.8958 26.5471 40.9375 27.8913C41.9792 29.2354 42.5 30.7717 42.5 32.5V41.25H45V43.75H25ZM35 47.5C34.3125 47.5 33.7242 47.2554 33.235 46.7663C32.7458 46.2771 32.5008 45.6883 32.5 45H37.5C37.5 45.6875 37.2554 46.2763 36.7663 46.7663C36.2771 47.2563 35.6883 47.5008 35 47.5Z" fill="#A9A9A9"/>
<path d="M26 101.75V99.25H28.5V90.5C28.5 88.7708 29.0208 87.2346 30.0625 85.8913C31.1042 84.5479 32.4583 83.6675 34.125 83.25V82.375C34.125 81.8542 34.3075 81.4117 34.6725 81.0475C35.0375 80.6833 35.48 80.5008 36 80.5C36.52 80.4992 36.9629 80.6817 37.3287 81.0475C37.6946 81.4133 37.8767 81.8558 37.875 82.375V83.25C39.5417 83.6667 40.8958 84.5471 41.9375 85.8913C42.9792 87.2354 43.5 88.7717 43.5 90.5V99.25H46V101.75H26ZM36 105.5C35.3125 105.5 34.7242 105.255 34.235 104.766C33.7458 104.277 33.5008 103.688 33.5 103H38.5C38.5 103.688 38.2554 104.276 37.7663 104.766C37.2771 105.256 36.6883 105.501 36 105.5Z" fill="#A9A9A9"/>
<circle cx="45" cy="86.5" r="6" fill="url(#paint0_linear_278_3130)"/>
<defs>
<linearGradient id="paint0_linear_278_3130" x1="45" y1="80.5" x2="45" y2="92.5" gradientUnits="userSpaceOnUse">
<stop stop-color="#F2680D"/>
<stop offset="1" stop-color="#CE3815"/>
</linearGradient>
</defs>
</svg>
