<svg width="15" height="15" viewBox="0 0 15 15" fill="none" xmlns="http://www.w3.org/2000/svg">
<path fill-rule="evenodd" clip-rule="evenodd" d="M5.625 3.125C5.625 2.79348 5.7567 2.47554 5.99112 2.24112C6.22554 2.0067 6.54348 1.875 6.875 1.875H8.125C8.45652 1.875 8.77446 2.0067 9.00888 2.24112C9.2433 2.47554 9.375 2.79348 9.375 3.125V5.625H11.875C12.2065 5.625 12.5245 5.7567 12.7589 5.99112C12.9933 6.22554 13.125 6.54348 13.125 6.875V8.125C13.125 8.45652 12.9933 8.77446 12.7589 9.00888C12.5245 9.2433 12.2065 9.375 11.875 9.375H9.375V11.875C9.375 12.2065 9.2433 12.5245 9.00888 12.7589C8.77446 12.9933 8.45652 13.125 8.125 13.125H6.875C6.54348 13.125 6.22554 12.9933 5.99112 12.7589C5.7567 12.5245 5.625 12.2065 5.625 11.875V9.375H3.125C2.79348 9.375 2.47554 9.2433 2.24112 9.00888C2.0067 8.77446 1.875 8.45652 1.875 8.125V6.875C1.875 6.54348 2.0067 6.22554 2.24112 5.99112C2.47554 5.7567 2.79348 5.625 3.125 5.625H5.625V3.125Z" fill="white"/>
</svg>
