<svg width="40" height="40" viewBox="0 0 40 40" fill="none" xmlns="http://www.w3.org/2000/svg">
<path d="M10.3176 35.1918C9.81481 35.1918 9.38015 35.0128 9.01367 34.6548C8.65572 34.2884 8.47674 33.8537 8.47674 33.3509C8.47674 32.8395 8.65572 32.4048 9.01367 32.0469C9.38015 31.6889 9.81481 31.5099 10.3176 31.5099C10.829 31.5099 11.2637 31.6889 11.6216 32.0469C11.9796 32.4048 12.1586 32.8395 12.1586 33.3509C12.1586 33.6832 12.0733 33.9901 11.9029 34.2713C11.7409 34.5526 11.5194 34.7784 11.2381 34.9489C10.9654 35.1108 10.6586 35.1918 10.3176 35.1918ZM19.9856 35.1918C19.4828 35.1918 19.0481 35.0128 18.6816 34.6548C18.3237 34.2884 18.1447 33.8537 18.1447 33.3509C18.1447 32.8395 18.3237 32.4048 18.6816 32.0469C19.0481 31.6889 19.4828 31.5099 19.9856 31.5099C20.497 31.5099 20.9316 31.6889 21.2896 32.0469C21.6475 32.4048 21.8265 32.8395 21.8265 33.3509C21.8265 33.6832 21.7413 33.9901 21.5708 34.2713C21.4089 34.5526 21.1873 34.7784 20.9061 34.9489C20.6333 35.1108 20.3265 35.1918 19.9856 35.1918ZM29.6536 35.1918C29.1507 35.1918 28.7161 35.0128 28.3496 34.6548C27.9917 34.2884 27.8127 33.8537 27.8127 33.3509C27.8127 32.8395 27.9917 32.4048 28.3496 32.0469C28.7161 31.6889 29.1507 31.5099 29.6536 31.5099C30.165 31.5099 30.5996 31.6889 30.9576 32.0469C31.3155 32.4048 31.4945 32.8395 31.4945 33.3509C31.4945 33.6832 31.4093 33.9901 31.2388 34.2713C31.0769 34.5526 30.8553 34.7784 30.574 34.9489C30.3013 35.1108 29.9945 35.1918 29.6536 35.1918Z" fill="white"/>
</svg>
